Coordinates
version=1
nRows=4
nColumns=107
inDegrees=yes

Units are S.I. units (second, meters, Newtons, ...)
If the header above contains a line with 'inDegrees', this indicates whether rotational values are in degrees (yes) or radians (no).

endheader
time	sternoclavicular_r2	sternoclavicular_r3	unrotscap_r3	unrotscap_r2	acromioclavicular_r2	acromioclavicular_r3	acromioclavicular_r1	unrothum_r1	unrothum_r3	unrothum_r2	elv_angle	shoulder_elv	shoulder1_r2	shoulder_rot	elbow_flexion	pro_sup	deviation	flexion	proximal_distal_r1	proximal_distal_r3	cmc_flexion	cmc_abduction	mp_flexion	ip_flexion	mcp2_flexion	mcp2_abduction	pm2_flexion	md2_flexion	mcp3_flexion	mcp3_abduction	pm3_flexion	md3_flexion	mcp4_flexion	mcp4_abduction	pm4_flexion	md4_flexion	mcp5_flexion	mcp5_abduction	pm5_flexion	md5_flexion	bicpt_tx	bicpt_ty	bicpt_tz	bicpt2_tx	bicpt2_ty	bicpt2_tz	ptpt_tx	ptpt_ty	ptpt_tz	FCUpt_tx	FCUpt_ty	FCUpt_tz	EDCpt_tx	EDCpt_ty	EDCpt_tz	APLpt_tx	APLpt_ty	APLpt_tz	FPLpt_tx	FPLpt_ty	FPLpt_tz	FPLpt2_tx	FPLpt2_ty	FPLpt2_tz	PEC1pt2_tx	PEC1pt2_ty	PEC1pt2_tz	PEC1pt3_tx	PEC1pt3_ty	PEC1pt3_tz	PEC2pt2_tx	PEC2pt2_ty	PEC2pt2_tz	PEC2pt3_tx	PEC2pt3_ty	PEC2pt3_tz	PEC3pt2_tx	PEC3pt2_ty	PEC3pt2_tz	PEC3pt3_tx	PEC3pt3_ty	PEC3pt3_tz	DELT2pt2a_tx	DELT2pt2a_ty	DELT2pt2a_tz	DELT2pt2_tx	DELT2pt2_ty	DELT2pt2_tz	LAT1pt2_tx	LAT1pt2_ty	LAT1pt2_tz	LAT1pt3_tx	LAT1pt3_ty	LAT1pt3_tz	LAT2pt2_tx	LAT2pt2_ty	LAT2pt2_tz	LAT2pt3_tx	LAT2pt3_ty	LAT2pt3_tz	LAT3pt2_tx	LAT3pt2_ty	LAT3pt2_tz	LAT3pt3_tx	LAT3pt3_ty	LAT3pt3_tz
      1.46666667	     -0.31027979	      0.13141988	     -0.13141988	      0.31027979	     -0.06282535	      0.50773235	      0.22822220	     -0.22822220	     -0.50773235	      0.06282535	    102.01209273	     73.46149932	     -1.78044690	    -39.39207107	     32.89018411	     86.19026935	      0.34524562	     -0.20510504	      0.37098620	     -0.10255252	     34.09111317	    -22.80579956	    -12.89081048	      8.67615593	     57.13613127	     11.46205133	     37.37781909	     31.31232129	     60.38593247	     -0.02039742	     31.79018699	     25.84414889	     53.11328619	    -12.64967030	     38.33617228	     31.12049442	     55.29367374	    -14.12287749	     27.47392020	      5.44295375	      0.00098791	     -0.03136972	     -0.00490720	      0.01422020	     -0.01913478	     -0.00104343	      0.00118151	     -0.06901797	     -0.00699309	      0.01275986	     -0.18223129	      0.00008905	     -0.01034281	      0.00358846	     -0.00076334	      0.00017463	      0.00006985	      0.00034926	      0.00022352	      0.00067057	      0.00037720	     -0.00001239	     -0.00020661	     -0.00024793	      0.00240791	      0.00844808	      0.00587692	     -0.00787671	      0.01901838	     -0.01803889	      0.00240791	      0.00844808	      0.00587692	      0.00053056	      0.01763077	     -0.00926432	      0.00384418	      0.00469787	      0.01570844	      0.00000000	      0.00721377	      0.00000000	     -0.00689722	     -0.03187416	     -0.00594471	      0.02245160	     -0.00108874	     -0.01255801	     -0.00085705	      0.01436582	     -0.00587692	      0.00236709	      0.02073249	     -0.01714103	     -0.00575449	      0.01244765	     -0.00526475	     -0.01199872	      0.02628291	     -0.02942544	     -0.02252821	      0.01391688	     -0.00706047	     -0.01493718	      0.03036411	     -0.03677159
      1.50000000	     -0.30945996	      0.13107263	     -0.13107263	      0.30945996	     -0.06265935	      0.50639080	      0.22761918	     -0.22761918	     -0.50639080	      0.06265935	    102.17658097	     73.26739659	     -1.78331776	    -39.87465495	     33.12313778	     85.54994611	      0.35006422	     -0.06486316	      0.37478258	     -0.03243158	     34.33355564	    -22.49973422	    -11.96606904	      9.12202279	     43.22601020	      9.27109229	     38.22205994	     15.30033360	     47.70616243	     -1.62648218	     26.03587875	     20.15979348	     39.61295161	    -11.70933017	     31.35916289	     26.96668068	     39.31978277	    -14.00057538	     22.32346888	      5.32983076	      0.00099561	     -0.03139642	     -0.00491150	      0.01428620	     -0.01919806	     -0.00115297	      0.00122882	     -0.06898738	     -0.00694151	      0.01268633	     -0.18225295	      0.00007148	     -0.01026597	      0.00355335	     -0.00074282	      0.00006284	      0.00002514	      0.00012568	      0.00008044	      0.00024131	      0.00013574	     -0.00001250	     -0.00020345	     -0.00024415	      0.00240154	      0.00842576	      0.00586140	     -0.00785590	      0.01896813	     -0.01799123	      0.00240154	      0.00842576	      0.00586140	      0.00052915	      0.01758419	     -0.00923984	      0.00383663	      0.00468546	      0.01568916	      0.00000000	      0.00717546	      0.00000000	     -0.00687900	     -0.03178994	     -0.00591289	      0.02260333	     -0.00110629	     -0.01284138	     -0.00085479	      0.01432786	     -0.00586140	      0.00236084	      0.02067770	     -0.01709574	     -0.00573928	      0.01241476	     -0.00525083	     -0.01196702	      0.02621347	     -0.02934769	     -0.02246869	      0.01388011	     -0.00704182	     -0.01489772	      0.03028388	     -0.03667443
      1.53333333	     -0.30902668	      0.13088912	     -0.13088912	      0.30902668	     -0.06257162	      0.50568180	      0.22730049	     -0.22730049	     -0.50568180	      0.06257162	    102.52121056	     73.16481335	     -1.78933268	    -40.71785920	     32.83654848	     84.25064406	      0.32763453	     -0.02311989	      0.35678458	     -0.01155995	     34.54095723	    -21.75663909	    -11.30080406	      9.57344197	     32.49601177	      6.36921097	     33.94235476	      9.58108310	     37.12600119	     -3.50591754	     20.08289175	     17.77943754	     28.57554629	    -10.74594279	     23.54168669	     24.56442366	     25.11968024	    -13.78913713	     18.56461272	      5.28771049	      0.00098613	     -0.03136357	     -0.00490621	      0.01441724	     -0.01912021	     -0.00137347	      0.00132483	     -0.06892530	     -0.00683684	      0.01253751	     -0.18229654	      0.00003676	     -0.01011005	      0.00348249	     -0.00070187	      0.00002323	      0.00000929	      0.00004645	      0.00002973	      0.00008918	      0.00005017	     -0.00001258	     -0.00020070	     -0.00024085	      0.00239818	      0.00841396	      0.00585319	     -0.00784490	      0.01894157	     -0.01796604	      0.00239818	      0.00841396	      0.00585319	      0.00052841	      0.01755957	     -0.00922690	      0.00383264	      0.00467890	      0.01567893	      0.00000000	      0.00715526	      0.00000000	     -0.00686937	     -0.03174543	     -0.00589610	      0.02286104	     -0.00113705	     -0.01334121	     -0.00085359	      0.01430780	     -0.00585319	      0.00235753	      0.02064875	     -0.01707180	     -0.00573125	      0.01239738	     -0.00524348	     -0.01195026	      0.02617677	     -0.02930660	     -0.02243723	      0.01386068	     -0.00703196	     -0.01487686	      0.03024148	     -0.03662308
      1.56666667	     -0.30967123	      0.13116212	     -0.13116212	      0.30967123	     -0.06270212	      0.50673652	      0.22777458	     -0.22777458	     -0.50673652	      0.06270212	    102.58655456	     73.31741634	     -1.79047315	    -40.36682025	     32.29021457	     81.81274509	      0.30795932	      0.00539345	      0.34031787	      0.00269673	     34.59878047	    -20.97972797	    -11.00540801	      9.84175996	     23.41174303	      3.23425142	     30.97408575	      4.75242653	     27.48280828	     -4.90136531	     16.67461599	     16.31896921	     18.52054231	    -10.10790299	     17.86857326	     23.49305048	     11.74108055	    -13.49746568	     17.70459470	      5.23088210	      0.00096806	     -0.03130095	     -0.00489613	      0.01465268	     -0.01897180	     -0.00178081	      0.00150496	     -0.06880882	     -0.00664046	      0.01225969	     -0.18237704	     -0.00002493	     -0.00981751	      0.00335094	     -0.00062752	     -0.00000554	     -0.00000222	     -0.00001108	     -0.00000709	     -0.00002126	     -0.00001196	     -0.00001261	     -0.00019995	     -0.00023994	      0.00240318	      0.00843151	      0.00586540	     -0.00786126	      0.01898108	     -0.01800351	      0.00240318	      0.00843151	      0.00586540	      0.00052952	      0.01759619	     -0.00924615	      0.00383858	      0.00468866	      0.01569414	      0.00000000	      0.00718532	      0.00000000	     -0.00688370	     -0.03181164	     -0.00592108	      0.02275488	     -0.00112423	     -0.01313241	     -0.00085537	      0.01433764	     -0.00586540	      0.00236245	      0.02069182	     -0.01710741	     -0.00574320	      0.01242324	     -0.00525442	     -0.01197519	      0.02623136	     -0.02936772	     -0.02248403	      0.01388959	     -0.00704662	     -0.01490789	      0.03030456	     -0.03669947
